<?xml version="1.0" encoding="UTF-8" standalone="no"?>
<svg xmlns:dc="http://purl.org/dc/elements/1.1/" xmlns:cc="http://creativecommons.org/ns#" xmlns:rdf="http://www.w3.org/1999/02/22-rdf-syntax-ns#" xmlns:svg="http://www.w3.org/2000/svg" xmlns="http://www.w3.org/2000/svg" viewBox="0 0 16 16" style="display:inline;enable-background:new" version="1.0" id="svg11300" height="16" width="16">
  <metadata id="metadata11">
    <rdf:RDF>
      <cc:Work rdf:about="">
        <dc:format>image/svg+xml</dc:format>
        <dc:type rdf:resource="http://purl.org/dc/dcmitype/StillImage" />
        <dc:title></dc:title>
      </cc:Work>
    </rdf:RDF>
  </metadata>
  <defs id="defs9" />
  <path id="rect43-3" style="fill:#6861cb;fill-opacity:1;stroke-width:0.15236;marker:none" d="M 1.3418002,-2e-7 C 0.59850019,-2e-7 2e-7,0.58740296 2e-7,1.3164058 v 0.306641 12.7539052 0.306642 C 2e-7,15.412598 0.59850019,16 1.3418002,16 H 14.6582 C 15.4015,16 16,15.412598 16,14.683594 V 14.376952 1.6230468 1.3164058 C 16,0.58740296 15.4015,-2e-7 14.6582,-2e-7 Z" />
  <g aria-label="C" id="text12" style="font-style:normal;font-variant:normal;font-weight:900;font-stretch:normal;font-size:112px;line-height:25px;font-family:'Inter UI';-inkscape-font-specification:'Inter UI, Heavy';font-variant-ligatures:normal;font-variant-caps:normal;font-variant-numeric:normal;font-variant-east-asian:normal;letter-spacing:0px;word-spacing:0px;fill:#ffffff;fill-opacity:1;stroke:none;stroke-width:1px;stroke-linecap:butt;stroke-linejoin:miter;stroke-opacity:1" transform="matrix(0.11766181,0,0,0.11996891,-7.4552028,-4.8278873)">
    <path d="m 168.0953,96.744947 c -1.75,-20.204546 -16.54546,-31.659091 -37.06818,-31.659091 -21.95455,0 -39.295459,14.636363 -39.295459,41.840904 0,27.08523 16.863639,41.84091 39.295459,41.84091 23.86363,0 35.95454,-16.54545 37.06818,-30.38636 l -22.43182,-0.15909 c -1.11364,6.96023 -6.04546,11.29545 -14.15909,11.29545 -10.77841,0 -17.02273,-7.63636 -17.02273,-22.59091 0,-14.159086 6.04546,-22.590904 17.18182,-22.590904 8.51136,0 13.36364,5.011363 14,12.409091 z" id="path837" style="fill:#ffffff" />
  </g>
</svg>
